<svg xmlns="http://www.w3.org/2000/svg" viewBox="0 0 256 256" role="img" aria-label="Keynote Clipboard Demo logo">
  <defs>
    <linearGradient id="bg" x1="0" y1="0" x2="0" y2="1">
      <stop offset="0" stop-color="#34c2ea"/>
      <stop offset="1" stop-color="#2a67f2"/>
    </linearGradient>
    <linearGradient id="board" x1="0" y1="0" x2="0" y2="1">
      <stop offset="0" stop-color="#f9fcff"/>
      <stop offset="1" stop-color="#dce5ee"/>
    </linearGradient>
    <linearGradient id="metal" x1="0" y1="0" x2="1" y2="1">
      <stop offset="0" stop-color="#f4f8fc"/>
      <stop offset="0.5" stop-color="#bcc8d4"/>
      <stop offset="1" stop-color="#f7fbff"/>
    </linearGradient>
    <filter id="shadow" x="-20%" y="-20%" width="140%" height="160%">
      <feDropShadow dx="0" dy="5" stdDeviation="4" flood-color="#15305f" flood-opacity="0.22"/>
    </filter>
  </defs>

  <rect x="8" y="8" width="240" height="240" rx="48" fill="url(#bg)"/>

  <g filter="url(#shadow)">
    <rect x="64" y="36" width="128" height="16" rx="8" fill="url(#metal)"/>
    <rect x="74" y="46" width="108" height="130" rx="12" fill="url(#board)"/>
    <rect x="88" y="60" width="80" height="60" rx="6" fill="#eff4f9" stroke="#ced9e3"/>

    <path d="M128 90 L128 68 A22 22 0 0 1 148 80 Z" fill="#59c3f0"/>
    <path d="M128 90 L148 80 A22 22 0 0 1 145 102 Z" fill="#5bbf4d"/>
    <path d="M128 90 L145 102 A22 22 0 0 1 127 112 Z" fill="#f2b726"/>
    <path d="M128 90 L127 112 A22 22 0 0 1 110 104 Z" fill="#f38b2a"/>
    <path d="M128 90 L110 104 A22 22 0 0 1 108 82 Z" fill="#ea5e55"/>
    <path d="M128 90 L108 82 A22 22 0 0 1 128 68 Z" fill="#a652ba"/>

    <rect x="120" y="176" width="16" height="18" rx="5" fill="url(#metal)"/>
    <rect x="104" y="192" width="48" height="10" rx="5" fill="url(#metal)"/>

    <rect x="98" y="145" width="60" height="34" rx="8" fill="#ffffff" stroke="#d4dee7"/>
    <rect x="110" y="137" width="36" height="10" rx="4" fill="url(#metal)"/>
    <line x1="108" y1="155" x2="148" y2="155" stroke="#87b5e8" stroke-width="3" stroke-linecap="round"/>
    <line x1="108" y1="163" x2="148" y2="163" stroke="#62b88a" stroke-width="3" stroke-linecap="round"/>
    <line x1="108" y1="171" x2="142" y2="171" stroke="#f1a73a" stroke-width="3" stroke-linecap="round"/>
  </g>
</svg>
